<svg xmlns="http://www.w3.org/2000/svg" enable-background="new 0 0 24 24" viewBox="0 0 24 24"><path d="M2.8 16H2.2C.987 16 0 15.013 0 13.8v-2.6C0 9.987.987 9 2.2 9H3c1.103 0 2 .897 2 2v.13c0 .414-.336.75-.75.75S3.5 11.544 3.5 11.13V11c0-.275-.225-.5-.5-.5H2.2c-.386 0-.7.314-.7.7v2.6c0 .386.314.7.7.7h.6c.386 0 .7-.314.7-.7 0-.414.336-.75.75-.75S5 13.386 5 13.8C5 15.013 4.013 16 2.8 16zM9.749 16c-.347 0-.658-.241-.732-.595l-1.038-4.893-.994 4.838C6.901 15.757 6.508 16.02 6.1 15.935c-.406-.083-.668-.479-.584-.885L6.635 9.6C6.706 9.25 7.013 9 7.369 9h1.214c.354 0 .66.248.733.595l1.167 5.5c.086.405-.173.803-.578.889C9.854 15.995 9.801 16 9.749 16z"/><path d="M9.43 14.5H6.54c-.414 0-.75-.336-.75-.75S6.126 13 6.54 13h2.89c.414 0 .75.336.75.75S9.844 14.5 9.43 14.5zM14.03 16h-1c-1.103 0-2-.897-2-2 0-.414.336-.75.75-.75s.75.336.75.75c0 .275.225.5.5.5h1c.275 0 .5-.225.5-.5s-.225-.5-.5-.5h-.75c-1.24 0-2.25-1.01-2.25-2.25S12.04 9 13.28 9h.75c1.103 0 2 .897 2 2 0 .414-.336.75-.75.75s-.75-.336-.75-.75c0-.275-.225-.5-.5-.5h-.75c-.413 0-.75.337-.75.75S12.867 12 13.28 12h.75c1.103 0 2 .897 2 2S15.133 16 14.03 16zM17.5 16c-.414 0-.75-.336-.75-.75v-5.5C16.75 9.336 17.086 9 17.5 9s.75.336.75.75v5.5C18.25 15.664 17.914 16 17.5 16zM22.25 16h-1.5C19.785 16 19 15.215 19 14.25v-3.5C19 9.785 19.785 9 20.75 9h1.5C23.215 9 24 9.785 24 10.75v3.5C24 15.215 23.215 16 22.25 16zM20.75 10.5c-.138 0-.25.112-.25.25v3.5c0 .138.112.25.25.25h1.5c.138 0 .25-.112.25-.25v-3.5c0-.138-.112-.25-.25-.25H20.75z"/></svg>